<?xml version="1.0" standalone="no"?>
<!DOCTYPE svg PUBLIC "-//W3C//DTD SVG 20010904//EN"
 "http://www.w3.org/TR/2001/REC-SVG-20010904/DTD/svg10.dtd">
<svg version="1.0" xmlns="http://www.w3.org/2000/svg"
 width="4675.000000pt" height="4675.000000pt" viewBox="0 0 4675.000000 4675.000000"
 preserveAspectRatio="xMidYMid meet">

<g transform="translate(0.000000,4675.000000) scale(0.100000,-0.100000)"
fill="#000000" stroke="none">
<path d="M29623 34215 c-141 -38 -126 -25 -870 -768 -597 -597 -695 -700 -721
-752 -47 -94 -62 -159 -62 -261 0 -162 48 -270 181 -409 43 -45 79 -86 79 -91
0 -5 -1009 -1018 -2243 -2252 l-2243 -2243 -1720 -350 c-945 -192 -2461 -500
-3369 -685 -907 -184 -2302 -468 -3100 -630 -797 -162 -1489 -305 -1536 -319
-274 -78 -507 -215 -708 -415 -131 -130 -222 -256 -306 -425 -341 -683 -221
-1529 311 -2205 100 -127 9272 -9297 9399 -9396 312 -246 634 -394 1015 -467
99 -19 148 -22 360 -21 228 0 254 2 371 27 648 138 1112 559 1288 1167 17 58
211 994 431 2080 221 1086 441 2171 490 2410 49 239 307 1513 575 2830 l487
2395 2251 2252 2251 2252 86 -83 c47 -46 106 -95 131 -109 115 -68 276 -93
402 -63 154 36 128 14 889 774 613 614 700 704 727 759 84 169 78 365 -15 530
-18 33 -718 739 -2198 2219 -2352 2351 -2204 2210 -2352 2248 -75 19 -210 20
-281 1z m-1155 -1534 c21 -11 971 -954 2273 -2258 2430 -2432 2266 -2259 2257
-2369 -11 -136 -157 -222 -286 -169 -26 11 -672 651 -2265 2243 -1225 1225
-2237 2242 -2249 2260 -72 116 -14 270 118 312 40 13 107 4 152 -19z m-986
-4490 c283 -72 463 -308 461 -601 -3 -344 -298 -619 -638 -597 -222 15 -417
142 -511 332 -48 97 -64 165 -64 270 0 174 57 314 179 435 156 155 366 214
573 161z m2279 -731 c175 -33 308 -166 340 -342 32 -172 -66 -360 -230 -441
-62 -30 -71 -32 -181 -32 -105 0 -120 2 -171 28 -108 53 -188 144 -224 256
-13 40 -16 76 -13 145 3 78 9 100 37 158 57 114 171 203 293 227 61 12 88 12
149 1z m-11328 -2587 c10 -470 91 -806 282 -1183 278 -545 740 -952 1370
-1205 269 -108 485 -164 935 -240 360 -61 653 -97 1185 -145 637 -58 815 -83
1082 -150 597 -152 1089 -470 1718 -1111 219 -224 379 -402 617 -687 l170
-202 -452 -2223 c-248 -1222 -462 -2266 -476 -2320 -175 -707 -872 -1117
-1635 -963 -283 57 -556 189 -783 376 -94 78 -7280 7267 -7347 7350 -175 218
-300 482 -361 761 -30 141 -33 468 -5 599 43 203 134 413 240 555 164 222 414
393 682 470 89 25 2710 563 2751 564 21 1 21 -2 27 -246z m7014 -48 c366 -77
640 -352 719 -719 20 -93 20 -280 0 -373 -61 -286 -268 -541 -532 -659 -209
-93 -476 -101 -696 -21 -273 99 -487 333 -570 622 -20 70 -23 101 -22 250 0
156 2 177 28 260 101 332 362 571 696 640 89 18 293 18 377 0z"/>
</g>
</svg>
