<?xml version="1.0" standalone="no"?>
<!DOCTYPE svg PUBLIC "-//W3C//DTD SVG 20010904//EN"
 "http://www.w3.org/TR/2001/REC-SVG-20010904/DTD/svg10.dtd">
<svg version="1.0" xmlns="http://www.w3.org/2000/svg"
 width="685.000000pt" height="130.000000pt" viewBox="0 0 685.000000 130.000000"
 preserveAspectRatio="xMidYMid meet">

<g transform="translate(0.000000,130.000000) scale(0.100000,-0.100000)"
fill="#000000" stroke="none">
<path d="M4398 1267 c-26 -14 -54 -32 -62 -40 -28 -28 -56 -82 -56 -110 0 -30
-22 -55 -85 -97 -20 -14 -64 -47 -97 -75 -33 -27 -81 -67 -107 -88 -25 -22
-85 -77 -134 -123 -48 -46 -95 -84 -104 -84 -9 0 -25 7 -35 16 -26 25 -64 164
-79 292 -7 62 -16 115 -20 118 -38 23 -121 -133 -133 -251 -3 -27 -7 -64 -10
-81 -8 -52 -58 -194 -86 -246 -6 -10 -10 -22 -10 -28 0 -14 -59 -108 -99 -158
-47 -59 -111 -96 -151 -87 -35 8 -44 19 -46 60 -1 17 -2 38 -3 48 -2 31 -45
42 -94 23 -23 -9 -66 -16 -95 -16 -60 0 -116 -20 -130 -47 -40 -73 -13 -157
67 -211 26 -18 59 -34 72 -36 14 -1 30 -5 36 -9 16 -10 110 -11 158 -2 22 4
61 18 86 31 53 26 164 143 192 201 11 21 30 59 43 85 14 26 37 82 52 125 38
107 55 109 106 10 l39 -75 -22 -108 c-28 -143 -31 -172 -19 -206 21 -59 97
-45 145 25 68 101 90 203 69 317 -18 93 -9 123 59 204 30 36 55 67 55 70 0 3
26 29 57 58 31 29 71 67 88 84 16 16 53 48 80 69 28 22 55 43 60 48 6 4 26 19
45 33 l35 25 9 -23 c27 -69 41 -90 88 -133 49 -44 175 -112 248 -133 74 -22
193 -78 206 -97 11 -17 9 -26 -11 -65 -13 -25 -28 -56 -35 -70 -6 -14 -20 -34
-31 -45 -11 -11 -28 -32 -39 -46 -11 -15 -53 -53 -95 -84 -64 -49 -86 -60
-143 -71 -61 -12 -69 -12 -92 5 -20 14 -26 29 -30 72 l-5 54 -66 0 c-43 0 -72
-5 -84 -15 -11 -9 -40 -15 -81 -15 -54 0 -69 -4 -98 -27 -37 -30 -49 -69 -40
-128 7 -43 94 -150 122 -150 8 0 35 -9 59 -21 54 -26 204 -37 283 -20 174 37
306 155 415 371 21 41 42 82 47 90 4 8 21 42 38 75 44 90 68 111 147 129 98
22 149 42 223 85 80 48 180 142 180 169 0 11 4 22 10 24 13 4 33 113 25 137
-8 26 -55 76 -83 91 -39 19 -141 17 -206 -5 -87 -30 -177 -130 -254 -282 -91
-183 -114 -198 -240 -163 -227 61 -360 229 -283 354 19 29 30 37 77 46 31 7
66 9 80 6 24 -6 54 -51 54 -81 0 -10 10 -30 21 -47 l21 -29 22 20 c11 10 38
22 58 26 43 8 56 20 64 62 4 23 0 36 -21 61 -14 17 -29 31 -33 30 -13 -3 -92
25 -92 33 0 4 -25 20 -56 35 -81 40 -182 44 -246 11z m997 -122 c30 -29 32
-62 8 -136 -34 -108 -177 -247 -277 -270 -78 -17 -92 -12 -88 36 3 42 63 177
115 259 17 27 56 68 86 92 68 53 117 59 156 19z m-1818 -391 c-3 -3 -12 -4
-19 -1 -8 3 -5 6 6 6 11 1 17 -2 13 -5z m40 -70 c-3 -3 -12 -4 -19 -1 -8 3 -5
6 6 6 11 1 17 -2 13 -5z m-10 -30 c-3 -3 -12 -4 -19 -1 -8 3 -5 6 6 6 11 1 17
-2 13 -5z m570 -360 c-3 -3 -12 -4 -19 -1 -8 3 -5 6 6 6 11 1 17 -2 13 -5z
m-110 -30 c-3 -3 -12 -4 -19 -1 -8 3 -5 6 6 6 11 1 17 -2 13 -5z m181 -1 c-10
-2 -28 -2 -40 0 -13 2 -5 4 17 4 22 1 32 -1 23 -4z m-175 -20 c-7 -2 -19 -2
-25 0 -7 3 -2 5 12 5 14 0 19 -2 13 -5z m-429 -29 c11 -4 14 -14 9 -37 -13
-71 -48 -70 -37 1 4 23 8 42 9 42 2 0 10 -3 19 -6z m483 0 c-3 -3 -12 -4 -19
-1 -8 3 -5 6 6 6 11 1 17 -2 13 -5z m100 0 c-3 -3 -12 -4 -19 -1 -8 3 -5 6 6
6 11 1 17 -2 13 -5z m86 -51 c-7 -2 -21 -2 -30 0 -10 3 -4 5 12 5 17 0 24 -2
18 -5z m-1276 -39 c-3 -3 -12 -4 -19 -1 -8 3 -5 6 6 6 11 1 17 -2 13 -5z m50
0 c-3 -3 -12 -4 -19 -1 -8 3 -5 6 6 6 11 1 17 -2 13 -5z m1136 -11 c-7 -2 -19
-2 -25 0 -7 3 -2 5 12 5 14 0 19 -2 13 -5z m137 -23 c12 -8 11 -10 -7 -10 -13
0 -23 5 -23 10 0 13 11 13 30 0z m-63 -6 c-3 -3 -12 -4 -19 -1 -8 3 -5 6 6 6
11 1 17 -2 13 -5z"/>
<path d="M805 1199 c-172 -18 -315 -77 -406 -170 -57 -58 -77 -101 -86 -191
-7 -58 30 -121 92 -163 43 -28 64 -35 129 -41 77 -7 211 10 222 28 3 4 14 8
25 8 38 0 167 95 204 151 30 46 58 119 46 119 -4 0 -46 -30 -92 -66 -46 -36
-100 -72 -119 -80 -47 -20 -128 -10 -166 21 -26 20 -29 29 -29 77 1 44 7 62
38 108 37 55 67 78 167 128 51 25 64 27 170 26 117 0 175 -6 187 -18 3 -3 18
-6 32 -6 15 0 39 -12 54 -26 l28 -26 -72 -77 c-40 -42 -89 -94 -109 -115 -19
-21 -47 -50 -62 -65 -16 -14 -28 -29 -28 -34 0 -5 -12 -21 -27 -36 -16 -15
-46 -51 -68 -79 -22 -28 -55 -68 -73 -89 -18 -21 -49 -60 -70 -87 -104 -137
-232 -235 -324 -249 -54 -8 -88 26 -88 87 0 44 -18 76 -43 76 -7 0 -36 -9 -65
-20 -32 -12 -76 -20 -116 -20 -54 0 -69 -4 -94 -25 -27 -23 -62 -97 -62 -132
0 -42 45 -115 91 -148 27 -19 55 -35 63 -35 7 0 31 -7 52 -16 30 -13 58 -15
119 -11 109 8 198 38 294 101 30 20 57 37 60 38 3 2 39 39 80 83 63 68 108
127 156 204 120 193 130 203 168 176 32 -22 41 -19 59 21 18 40 9 50 -37 42
-50 -10 -26 58 64 178 90 121 167 190 201 179 54 -17 68 -171 24 -261 -27 -56
-83 -114 -110 -114 -27 0 -74 -30 -74 -48 0 -13 10 -18 48 -20 26 -1 52 -9 57
-16 18 -23 10 -118 -14 -170 -13 -27 -47 -73 -77 -102 -47 -47 -59 -54 -94
-54 -36 0 -40 2 -40 26 0 29 13 57 46 97 26 31 32 67 12 67 -7 -1 -31 -9 -53
-20 -22 -11 -44 -19 -48 -20 -13 0 -77 -54 -77 -64 0 -6 -9 -19 -19 -30 -28
-30 -61 -120 -61 -166 0 -32 7 -48 36 -79 l35 -40 87 2 c82 3 90 5 147 41 78
50 104 80 154 177 36 72 41 88 41 150 0 45 -5 78 -15 93 -8 12 -18 44 -21 70
-6 42 -4 50 21 76 16 17 34 30 40 30 14 0 55 43 89 94 20 30 26 51 26 95 0 50
-6 67 -45 131 -53 89 -56 114 -15 135 41 21 168 31 213 16 43 -14 57 -48 36
-87 -19 -36 -1 -48 55 -40 79 12 104 82 43 124 -18 12 -41 22 -50 22 -8 0 -18
4 -21 9 -13 21 -111 21 -191 0 -44 -12 -108 -26 -143 -32 -64 -11 -74 -9 -197
43 -80 34 -277 52 -410 39z m-242 -226 c-7 -2 -21 -2 -30 0 -10 3 -4 5 12 5
17 0 24 -2 18 -5z m-106 -79 c-3 -3 -12 -4 -19 -1 -8 3 -5 6 6 6 11 1 17 -2
13 -5z m0 -20 c-3 -3 -12 -4 -19 -1 -8 3 -5 6 6 6 11 1 17 -2 13 -5z m83 2 c0
-3 -4 -8 -10 -11 -5 -3 -10 -1 -10 4 0 6 5 11 10 11 6 0 10 -2 10 -4z m-92
-53 c-10 -2 -28 -2 -40 0 -13 2 -5 4 17 4 22 1 32 -1 23 -4z m-5 -30 c-7 -2
-19 -2 -25 0 -7 3 -2 5 12 5 14 0 19 -2 13 -5z m-306 -559 c-3 -3 -12 -4 -19
-1 -8 3 -5 6 6 6 11 1 17 -2 13 -5z m60 0 c-3 -3 -12 -4 -19 -1 -8 3 -5 6 6 6
11 1 17 -2 13 -5z m96 -1 c-13 -2 -33 -2 -45 0 -13 2 -3 4 22 4 25 0 35 -2 23
-4z m-128 -23 c3 -5 1 -10 -4 -10 -6 0 -11 5 -11 10 0 6 2 10 4 10 3 0 8 -4
11 -10z m77 -9 c16 -18 15 -20 -2 -18 -11 1 -17 3 -15 6 3 2 0 10 -6 18 -6 7
-7 13 -2 13 5 0 16 -9 25 -19z m53 -49 c-3 -3 -11 0 -18 7 -9 10 -8 11 6 5 10
-3 15 -9 12 -12z m32 -18 c-3 -3 -12 -4 -19 -1 -8 3 -5 6 6 6 11 1 17 -2 13
-5z m80 0 c-3 -3 -12 -4 -19 -1 -8 3 -5 6 6 6 11 1 17 -2 13 -5z"/>
<path d="M5809 925 c-37 -20 -44 -54 -17 -82 27 -29 57 -29 92 -2 30 24 35 65
9 85 -23 17 -51 17 -84 -1z"/>
<path d="M2405 865 c-19 -19 -35 -41 -35 -48 0 -8 -8 -22 -19 -31 -10 -9 -31
-43 -45 -74 -15 -31 -47 -88 -71 -127 -25 -38 -49 -79 -54 -90 -5 -11 -50 -60
-100 -108 -99 -98 -125 -107 -127 -47 -1 34 15 67 88 179 15 25 28 55 28 69 0
24 0 25 -77 19 -52 -3 -98 0 -136 10 -72 18 -136 5 -212 -43 -62 -39 -175
-158 -175 -184 0 -10 -4 -22 -10 -25 -5 -3 -10 -23 -10 -44 0 -59 41 -92 122
-98 52 -4 72 -1 104 15 22 11 56 23 77 27 31 6 42 3 69 -20 28 -24 38 -27 81
-21 55 6 116 38 165 86 l32 33 -3 -43 c-3 -33 1 -47 17 -62 31 -30 115 -18
181 26 28 18 61 40 75 49 l25 16 -3 -38 c-3 -33 0 -42 22 -56 45 -30 114 -13
210 50 86 57 129 99 154 152 28 59 4 47 -77 -35 -77 -79 -109 -98 -148 -90
-14 3 -17 11 -15 43 2 22 9 47 16 55 7 8 26 40 42 70 16 30 31 57 34 60 5 5
22 36 59 105 9 17 29 48 44 70 15 22 27 43 27 47 0 4 11 24 25 44 14 20 25 50
25 65 0 26 -3 29 -35 29 -36 0 -105 -49 -105 -75 0 -8 -11 -26 -24 -42 -14
-16 -36 -54 -50 -84 -103 -217 -254 -394 -330 -387 -29 3 -31 5 -27 38 1 19
12 47 22 61 10 15 19 31 19 36 1 4 23 44 51 88 27 44 56 95 65 114 9 19 27 49
40 66 13 18 24 39 24 47 0 9 6 21 14 27 22 18 47 77 40 95 -12 30 -71 20 -109
-19z m-539 -276 c4 -6 10 -28 15 -48 20 -85 -94 -224 -194 -237 -39 -6 -45 -4
-61 21 -23 36 -14 88 27 152 40 62 70 91 110 108 39 17 93 19 103 4z"/>
<path d="M5449 830 c-48 -54 -66 -82 -76 -122 -8 -29 -19 -59 -26 -68 -7 -8
-22 -33 -32 -55 -11 -22 -33 -60 -50 -85 -43 -65 -54 -83 -61 -100 -3 -8 -11
-25 -16 -37 -6 -12 -12 -43 -12 -67 -1 -60 20 -76 91 -71 53 4 104 28 171 82
l34 27 -2 -24 c-4 -41 -1 -48 23 -70 19 -19 29 -21 77 -15 30 4 66 14 80 24
14 9 32 21 42 26 9 6 30 20 47 33 31 23 31 23 31 3 0 -12 17 -38 37 -57 37
-36 38 -36 103 -31 64 6 164 37 184 57 5 5 18 10 27 10 9 0 22 7 30 16 7 8 25
22 40 30 l28 14 -25 -51 c-33 -65 -27 -82 28 -76 48 6 86 44 113 115 9 23 21
42 26 42 5 0 9 6 9 14 0 19 39 46 66 46 39 0 45 -21 24 -88 -40 -127 25 -165
165 -97 67 32 225 185 225 217 0 16 -56 -21 -100 -67 -52 -54 -114 -90 -135
-78 -20 12 -85 121 -85 144 0 25 66 89 91 89 14 0 21 -9 26 -30 5 -25 10 -30
35 -30 31 0 88 47 88 72 -2 51 -117 92 -150 53 -7 -8 -17 -15 -23 -15 -5 0
-27 -16 -48 -35 -40 -35 -69 -45 -68 -22 0 13 51 100 112 191 37 55 72 135 63
143 -2 3 -23 7 -45 10 -58 8 -67 -2 -206 -245 -5 -10 -27 -43 -47 -74 -21 -31
-38 -61 -38 -67 0 -6 -4 -11 -10 -11 -5 0 -10 -6 -10 -12 -1 -13 -69 -71 -165
-140 -46 -32 -65 -40 -117 -44 -47 -4 -68 -1 -82 10 -19 15 -28 69 -15 96 4 8
13 28 20 45 8 16 21 37 29 46 8 9 22 25 31 35 8 10 30 30 47 43 42 32 41 45
-4 38 -83 -14 -155 -69 -247 -189 -67 -89 -119 -125 -174 -119 -28 3 40 181
90 233 9 10 17 29 17 43 0 22 -4 25 -33 25 -19 0 -48 -7 -65 -15 -31 -16 -85
-82 -115 -141 -35 -68 -171 -173 -194 -150 -17 17 0 88 37 161 23 44 53 102
67 129 13 27 48 73 76 103 l52 55 55 -5 c76 -6 172 5 178 21 3 10 -9 13 -49
12 -100 -3 -135 0 -153 13 -17 13 -17 15 -2 45 22 43 12 62 -34 62 -35 0 -44
-6 -101 -70z"/>
<path d="M6117 579 c-46 -38 -50 -74 -10 -90 37 -14 74 1 96 39 44 76 -14 110
-86 51z"/>
</g>
</svg>
